<svg xmlns="http://www.w3.org/2000/svg" fill="none" viewBox="28.98 59 184.05 42.88"><path fill="#0053D6" fill-rule="evenodd" d="M50.617 59c-9.105 0-14.562 7.565-13.99 14.95.272 3.358 1.9 6.566 4.614 9.108.995.938 2.08 1.725 3.226 2.33a7.424 7.424 0 0 1-1.689-3.692c-.603-3.722 1.84-9.2 8.08-9.2 6.723 0 14.11 6.416 14.743 14.284a15.282 15.282 0 0 1-4.522 12.195c6.361-3.722 10.642-10.622 10.642-18.55a21.415 21.415 0 0 0-12.27-19.397C56.797 59.787 53.63 59 50.617 59zm154.001 16.613c-4.432 0-7.446 3.33-7.446 7.899s3.015 7.958 7.416 7.989c2.714 0 4.432-1.332 5.397-2.785l.301 2.421H213v-22h-3.015v9.23c-1.055-1.755-2.925-2.754-5.367-2.754zm.483 2.603c2.834 0 4.854 2.148 4.854 5.326 0 3.147-2.02 5.326-4.854 5.326-2.804 0-4.854-2.179-4.854-5.326 0-3.178 2.02-5.326 4.854-5.326zm-27.375-9.048c-1.146 0-1.99.817-1.99 1.906 0 1.12.844 1.937 1.99 1.937 1.176 0 2.02-.847 2.02-1.937 0-1.12-.875-1.906-2.02-1.906zm1.507 6.87h-3.015v15.16h3.015v-15.16zm-90.025-6.235h-6.784v21.365h6.784c7.477 0 10.914-4.086 10.914-10.652 0-6.597-3.437-10.713-10.914-10.713zm7.838 10.743c0 5.023-2.02 8.08-7.929 8.08H85.44v-16.28h3.678c5.88 0 7.93 3.116 7.93 8.2zm7.447 3.752h11.849c.03-.544.03-.998 0-1.422 0-3.904-2.804-7.202-7.236-7.202-4.492 0-7.567 3.208-7.567 7.989 0 4.72 3.105 7.868 7.537 7.868 3.557 0 6.03-2.149 6.844-4.993h-3.015c-.603 1.513-1.93 2.481-3.829 2.481-2.322 0-4.402-1.634-4.583-4.72zm4.613-6.112c2.352 0 4.161 1.513 4.281 3.994h-8.803c.331-2.633 2.261-3.994 4.522-3.994zm23.637 6.112h-11.849c.181 3.087 2.261 4.721 4.583 4.721 1.899 0 3.226-.968 3.829-2.481h3.015c-.814 2.844-3.286 4.993-6.844 4.993-4.432 0-7.537-3.147-7.537-7.868 0-4.781 3.075-7.99 7.567-7.99 4.432 0 7.236 3.3 7.236 7.203.03.424.03.878 0 1.422zm-2.955-2.118c-.12-2.481-1.929-3.994-4.281-3.994-2.261 0-4.191 1.361-4.522 3.994h8.803zm7.478-6.143h-2.714v21.849h3.015v-9.109c1.055 1.755 2.925 2.754 5.336 2.754 4.432 0 7.477-3.329 7.477-7.898 0-4.57-3.045-7.96-7.446-7.96-2.714 0-4.432 1.332-5.367 2.785l-.301-2.421zm5.185 2.24c2.834 0 4.854 2.178 4.854 5.325 0 3.178-2.02 5.326-4.854 5.326-2.804 0-4.854-2.148-4.854-5.326 0-3.147 2.02-5.326 4.854-5.326zm31.416-8.474v21.395h-3.015V75.099l-6.693 13.043h-2.322l-6.723-13.043v16.099h-3.015V69.803h3.527l7.357 14.435 7.326-14.435h3.558zm21.647 12.65v8.745h-2.985v-8.443c0-2.996-1.236-4.479-3.678-4.479-2.472 0-4.251 1.816-4.251 5.115v7.807h-3.015V76.037h2.683l.211 2.663c.965-1.876 2.864-3.026 5.216-3.026 3.588 0 5.819 2.209 5.819 6.778zM64.094 86.93c.603 7.384-4.854 14.949-13.96 14.949-3.014 0-6.21-.756-8.863-2.027A21.416 21.416 0 0 1 29 80.455a21.416 21.416 0 0 1 10.643-18.55A15.282 15.282 0 0 0 35.12 74.1c.633 7.868 8.02 14.284 14.743 14.284 6.241 0 8.683-5.478 8.08-9.2a7.424 7.424 0 0 0-1.688-3.692 14.802 14.802 0 0 1 3.226 2.33c2.713 2.542 4.341 5.75 4.613 9.11z" clip-rule="evenodd"/></svg>